<mxfile host="app.diagrams.net" modified="2021-04-28T08:13:40.905Z" agent="5.0 (Windows NT 10.0; Win64; x64) AppleWebKit/537.36 (KHTML, like Gecko) Chrome/90.0.4430.85 Safari/537.36" etag="3MiHvmpgtlyHMXthv9Q3" version="14.6.6" type="github">
  <diagram id="_sloMwmVJVFrSZ0xpHqJ" name="第 1 页">
    <mxGraphModel dx="1422" dy="706" grid="1" gridSize="10" guides="1" tooltips="1" connect="1" arrows="1" fold="1" page="1" pageScale="1" pageWidth="827" pageHeight="1169" math="0" shadow="0">
      <root>
        <mxCell id="0" />
        <mxCell id="1" parent="0" />
        <mxCell id="zJMHawpHRN4qf1-_98gR-1" value="" style="rounded=1;whiteSpace=wrap;html=1;" vertex="1" parent="1">
          <mxGeometry x="80" y="292" width="450" height="100" as="geometry" />
        </mxCell>
        <mxCell id="zJMHawpHRN4qf1-_98gR-2" value="" style="rounded=0;whiteSpace=wrap;html=1;fillColor=#f8cecc;strokeColor=#b85450;" vertex="1" parent="1">
          <mxGeometry x="89" y="256" width="40" height="20" as="geometry" />
        </mxCell>
        <mxCell id="zJMHawpHRN4qf1-_98gR-3" style="edgeStyle=none;rounded=0;orthogonalLoop=1;jettySize=auto;html=1;exitX=0.5;exitY=0;exitDx=0;exitDy=0;entryX=0.511;entryY=1.193;entryDx=0;entryDy=0;entryPerimeter=0;startArrow=none;startFill=0;" edge="1" parent="1" source="zJMHawpHRN4qf1-_98gR-4" target="zJMHawpHRN4qf1-_98gR-2">
          <mxGeometry relative="1" as="geometry" />
        </mxCell>
        <mxCell id="zJMHawpHRN4qf1-_98gR-4" value="" style="rounded=0;whiteSpace=wrap;html=1;fillColor=#dae8fc;strokeColor=#6c8ebf;" vertex="1" parent="1">
          <mxGeometry x="90" y="300" width="40" height="20" as="geometry" />
        </mxCell>
        <mxCell id="zJMHawpHRN4qf1-_98gR-5" value="" style="rounded=0;whiteSpace=wrap;html=1;fillColor=#dae8fc;strokeColor=#6c8ebf;" vertex="1" parent="1">
          <mxGeometry x="140" y="300" width="40" height="20" as="geometry" />
        </mxCell>
        <mxCell id="zJMHawpHRN4qf1-_98gR-6" value="" style="rounded=0;whiteSpace=wrap;html=1;fillColor=#dae8fc;strokeColor=#6c8ebf;" vertex="1" parent="1">
          <mxGeometry x="260" y="300" width="40" height="20" as="geometry" />
        </mxCell>
        <mxCell id="zJMHawpHRN4qf1-_98gR-7" style="rounded=0;orthogonalLoop=1;jettySize=auto;html=1;entryX=0.5;entryY=1;entryDx=0;entryDy=0;exitX=0.5;exitY=0;exitDx=0;exitDy=0;" edge="1" parent="1" source="zJMHawpHRN4qf1-_98gR-10" target="zJMHawpHRN4qf1-_98gR-5">
          <mxGeometry relative="1" as="geometry">
            <mxPoint x="110" y="360" as="sourcePoint" />
          </mxGeometry>
        </mxCell>
        <mxCell id="zJMHawpHRN4qf1-_98gR-8" style="edgeStyle=none;rounded=0;orthogonalLoop=1;jettySize=auto;html=1;exitX=0.5;exitY=0;exitDx=0;exitDy=0;startArrow=none;startFill=0;" edge="1" parent="1" source="zJMHawpHRN4qf1-_98gR-10">
          <mxGeometry relative="1" as="geometry">
            <mxPoint x="109.85714285714289" y="320" as="targetPoint" />
          </mxGeometry>
        </mxCell>
        <mxCell id="zJMHawpHRN4qf1-_98gR-9" style="edgeStyle=none;rounded=0;orthogonalLoop=1;jettySize=auto;html=1;exitX=0.5;exitY=0;exitDx=0;exitDy=0;startArrow=none;startFill=0;" edge="1" parent="1" source="zJMHawpHRN4qf1-_98gR-10">
          <mxGeometry relative="1" as="geometry">
            <mxPoint x="280" y="320" as="targetPoint" />
          </mxGeometry>
        </mxCell>
        <mxCell id="zJMHawpHRN4qf1-_98gR-10" value="" style="rounded=0;whiteSpace=wrap;html=1;fillColor=#dae8fc;strokeColor=#6c8ebf;" vertex="1" parent="1">
          <mxGeometry x="90" y="360" width="40" height="20" as="geometry" />
        </mxCell>
        <mxCell id="zJMHawpHRN4qf1-_98gR-11" style="edgeStyle=none;rounded=0;orthogonalLoop=1;jettySize=auto;html=1;exitX=0.5;exitY=0;exitDx=0;exitDy=0;" edge="1" parent="1" source="zJMHawpHRN4qf1-_98gR-14">
          <mxGeometry relative="1" as="geometry">
            <mxPoint x="160.1428571428571" y="320" as="targetPoint" />
          </mxGeometry>
        </mxCell>
        <mxCell id="zJMHawpHRN4qf1-_98gR-12" style="edgeStyle=none;rounded=0;orthogonalLoop=1;jettySize=auto;html=1;exitX=0.5;exitY=0;exitDx=0;exitDy=0;entryX=0.5;entryY=1;entryDx=0;entryDy=0;startArrow=none;startFill=0;" edge="1" parent="1" source="zJMHawpHRN4qf1-_98gR-14" target="zJMHawpHRN4qf1-_98gR-4">
          <mxGeometry relative="1" as="geometry" />
        </mxCell>
        <mxCell id="zJMHawpHRN4qf1-_98gR-13" style="edgeStyle=none;rounded=0;orthogonalLoop=1;jettySize=auto;html=1;exitX=0.5;exitY=0;exitDx=0;exitDy=0;startArrow=none;startFill=0;" edge="1" parent="1" source="zJMHawpHRN4qf1-_98gR-14">
          <mxGeometry relative="1" as="geometry">
            <mxPoint x="280" y="320" as="targetPoint" />
          </mxGeometry>
        </mxCell>
        <mxCell id="zJMHawpHRN4qf1-_98gR-14" value="" style="rounded=0;whiteSpace=wrap;html=1;fillColor=#dae8fc;strokeColor=#6c8ebf;" vertex="1" parent="1">
          <mxGeometry x="140" y="360" width="40" height="20" as="geometry" />
        </mxCell>
        <mxCell id="zJMHawpHRN4qf1-_98gR-15" value="&lt;b&gt;. . .&lt;/b&gt;" style="text;html=1;align=center;verticalAlign=middle;resizable=0;points=[];autosize=1;strokeColor=none;" vertex="1" parent="1">
          <mxGeometry x="205" y="300" width="30" height="20" as="geometry" />
        </mxCell>
        <mxCell id="zJMHawpHRN4qf1-_98gR-16" value="&lt;b&gt;. . .&lt;/b&gt;" style="text;html=1;align=center;verticalAlign=middle;resizable=0;points=[];autosize=1;strokeColor=none;" vertex="1" parent="1">
          <mxGeometry x="205" y="360" width="30" height="20" as="geometry" />
        </mxCell>
        <mxCell id="zJMHawpHRN4qf1-_98gR-17" style="edgeStyle=none;rounded=0;orthogonalLoop=1;jettySize=auto;html=1;exitX=0.5;exitY=0;exitDx=0;exitDy=0;entryX=0.5;entryY=1;entryDx=0;entryDy=0;startArrow=none;startFill=0;" edge="1" parent="1" source="zJMHawpHRN4qf1-_98gR-20" target="zJMHawpHRN4qf1-_98gR-5">
          <mxGeometry relative="1" as="geometry" />
        </mxCell>
        <mxCell id="zJMHawpHRN4qf1-_98gR-18" style="edgeStyle=none;rounded=0;orthogonalLoop=1;jettySize=auto;html=1;exitX=0.5;exitY=0;exitDx=0;exitDy=0;entryX=0.5;entryY=1;entryDx=0;entryDy=0;startArrow=none;startFill=0;" edge="1" parent="1" source="zJMHawpHRN4qf1-_98gR-20" target="zJMHawpHRN4qf1-_98gR-6">
          <mxGeometry relative="1" as="geometry" />
        </mxCell>
        <mxCell id="zJMHawpHRN4qf1-_98gR-19" style="edgeStyle=none;rounded=0;orthogonalLoop=1;jettySize=auto;html=1;exitX=0.5;exitY=0;exitDx=0;exitDy=0;entryX=0.5;entryY=1;entryDx=0;entryDy=0;startArrow=none;startFill=0;" edge="1" parent="1" source="zJMHawpHRN4qf1-_98gR-20" target="zJMHawpHRN4qf1-_98gR-4">
          <mxGeometry relative="1" as="geometry" />
        </mxCell>
        <mxCell id="zJMHawpHRN4qf1-_98gR-20" value="" style="rounded=0;whiteSpace=wrap;html=1;fillColor=#dae8fc;strokeColor=#6c8ebf;" vertex="1" parent="1">
          <mxGeometry x="260" y="360" width="40" height="20" as="geometry" />
        </mxCell>
        <mxCell id="zJMHawpHRN4qf1-_98gR-21" style="edgeStyle=none;rounded=0;orthogonalLoop=1;jettySize=auto;html=1;exitX=0.5;exitY=0;exitDx=0;exitDy=0;entryX=0.5;entryY=1;entryDx=0;entryDy=0;startArrow=none;startFill=0;" edge="1" parent="1" source="zJMHawpHRN4qf1-_98gR-22" target="zJMHawpHRN4qf1-_98gR-10">
          <mxGeometry relative="1" as="geometry" />
        </mxCell>
        <mxCell id="zJMHawpHRN4qf1-_98gR-22" value="[CLS]" style="rounded=0;whiteSpace=wrap;html=1;fillColor=#ffe6cc;strokeColor=#d79b00;" vertex="1" parent="1">
          <mxGeometry x="90" y="401" width="40" height="20" as="geometry" />
        </mxCell>
        <mxCell id="zJMHawpHRN4qf1-_98gR-23" value="" style="edgeStyle=none;rounded=0;orthogonalLoop=1;jettySize=auto;html=1;startArrow=none;startFill=0;entryX=0.5;entryY=1;entryDx=0;entryDy=0;" edge="1" parent="1" source="zJMHawpHRN4qf1-_98gR-24" target="zJMHawpHRN4qf1-_98gR-14">
          <mxGeometry relative="1" as="geometry" />
        </mxCell>
        <mxCell id="zJMHawpHRN4qf1-_98gR-24" value="&lt;i&gt;&lt;font style=&quot;font-size: 15px&quot;&gt;q&lt;/font&gt;&lt;sup&gt;(1)&lt;/sup&gt;&lt;/i&gt;" style="rounded=0;whiteSpace=wrap;html=1;fillColor=#ffe6cc;strokeColor=#d79b00;" vertex="1" parent="1">
          <mxGeometry x="140" y="401" width="40" height="20" as="geometry" />
        </mxCell>
        <mxCell id="zJMHawpHRN4qf1-_98gR-25" style="edgeStyle=none;rounded=0;orthogonalLoop=1;jettySize=auto;html=1;entryX=0.5;entryY=1;entryDx=0;entryDy=0;startArrow=none;startFill=0;" edge="1" parent="1" source="zJMHawpHRN4qf1-_98gR-26" target="zJMHawpHRN4qf1-_98gR-20">
          <mxGeometry relative="1" as="geometry" />
        </mxCell>
        <mxCell id="zJMHawpHRN4qf1-_98gR-26" value="&lt;i&gt;&lt;font style=&quot;font-size: 15px&quot;&gt;q&lt;/font&gt;&lt;sup&gt;(m)&lt;/sup&gt;&lt;/i&gt;" style="rounded=0;whiteSpace=wrap;html=1;fillColor=#ffe6cc;strokeColor=#d79b00;" vertex="1" parent="1">
          <mxGeometry x="260" y="401" width="40" height="20" as="geometry" />
        </mxCell>
        <mxCell id="zJMHawpHRN4qf1-_98gR-27" value="" style="endArrow=none;html=1;" edge="1" parent="1">
          <mxGeometry width="50" height="50" relative="1" as="geometry">
            <mxPoint x="140" y="437" as="sourcePoint" />
            <mxPoint x="140" y="427" as="targetPoint" />
          </mxGeometry>
        </mxCell>
        <mxCell id="zJMHawpHRN4qf1-_98gR-28" value="" style="endArrow=none;html=1;" edge="1" parent="1">
          <mxGeometry width="50" height="50" relative="1" as="geometry">
            <mxPoint x="301" y="437" as="sourcePoint" />
            <mxPoint x="301" y="427" as="targetPoint" />
          </mxGeometry>
        </mxCell>
        <mxCell id="zJMHawpHRN4qf1-_98gR-29" value="" style="endArrow=none;html=1;" edge="1" parent="1">
          <mxGeometry width="50" height="50" relative="1" as="geometry">
            <mxPoint x="140" y="432" as="sourcePoint" />
            <mxPoint x="300" y="432" as="targetPoint" />
          </mxGeometry>
        </mxCell>
        <mxCell id="zJMHawpHRN4qf1-_98gR-30" value="question" style="text;html=1;align=center;verticalAlign=middle;resizable=0;points=[];autosize=1;strokeColor=none;" vertex="1" parent="1">
          <mxGeometry x="194" y="434" width="60" height="20" as="geometry" />
        </mxCell>
        <mxCell id="zJMHawpHRN4qf1-_98gR-31" value="&lt;font&gt;&lt;b&gt;&lt;font style=&quot;font-size: 15px&quot;&gt;&lt;i&gt;M&lt;sub&gt;C&lt;/sub&gt;&lt;/i&gt;&lt;/font&gt;&lt;font style=&quot;font-size: 15px&quot;&gt;&amp;nbsp;:&amp;nbsp;&lt;/font&gt;&lt;/b&gt;&lt;b style=&quot;font-size: 15px&quot;&gt;A cross-encoder based on pre-trained&amp;nbsp;&lt;/b&gt;&lt;/font&gt;&lt;b&gt;&lt;span style=&quot;font-size: 14px&quot;&gt;ERNIE&lt;/span&gt;&lt;/b&gt;" style="text;html=1;align=center;verticalAlign=middle;resizable=0;points=[];autosize=1;strokeColor=none;" vertex="1" parent="1">
          <mxGeometry x="133" y="460" width="370" height="20" as="geometry" />
        </mxCell>
        <mxCell id="zJMHawpHRN4qf1-_98gR-32" value="" style="rounded=0;whiteSpace=wrap;html=1;fillColor=#dae8fc;strokeColor=#6c8ebf;" vertex="1" parent="1">
          <mxGeometry x="309" y="300" width="40" height="20" as="geometry" />
        </mxCell>
        <mxCell id="zJMHawpHRN4qf1-_98gR-33" value="" style="rounded=0;whiteSpace=wrap;html=1;fillColor=#dae8fc;strokeColor=#6c8ebf;" vertex="1" parent="1">
          <mxGeometry x="359" y="300" width="40" height="20" as="geometry" />
        </mxCell>
        <mxCell id="zJMHawpHRN4qf1-_98gR-34" value="" style="rounded=0;whiteSpace=wrap;html=1;fillColor=#dae8fc;strokeColor=#6c8ebf;" vertex="1" parent="1">
          <mxGeometry x="479" y="300" width="40" height="20" as="geometry" />
        </mxCell>
        <mxCell id="zJMHawpHRN4qf1-_98gR-35" style="rounded=0;orthogonalLoop=1;jettySize=auto;html=1;entryX=0.5;entryY=1;entryDx=0;entryDy=0;exitX=0.5;exitY=0;exitDx=0;exitDy=0;" edge="1" parent="1" source="zJMHawpHRN4qf1-_98gR-38" target="zJMHawpHRN4qf1-_98gR-33">
          <mxGeometry relative="1" as="geometry">
            <mxPoint x="329" y="360" as="sourcePoint" />
          </mxGeometry>
        </mxCell>
        <mxCell id="zJMHawpHRN4qf1-_98gR-36" style="edgeStyle=none;rounded=0;orthogonalLoop=1;jettySize=auto;html=1;exitX=0.5;exitY=0;exitDx=0;exitDy=0;startArrow=none;startFill=0;" edge="1" parent="1" source="zJMHawpHRN4qf1-_98gR-38">
          <mxGeometry relative="1" as="geometry">
            <mxPoint x="328.8571428571429" y="319.9999999999999" as="targetPoint" />
          </mxGeometry>
        </mxCell>
        <mxCell id="zJMHawpHRN4qf1-_98gR-37" style="edgeStyle=none;rounded=0;orthogonalLoop=1;jettySize=auto;html=1;exitX=0.5;exitY=0;exitDx=0;exitDy=0;startArrow=none;startFill=0;" edge="1" parent="1" source="zJMHawpHRN4qf1-_98gR-38">
          <mxGeometry relative="1" as="geometry">
            <mxPoint x="499" y="319.9999999999999" as="targetPoint" />
          </mxGeometry>
        </mxCell>
        <mxCell id="zJMHawpHRN4qf1-_98gR-38" value="" style="rounded=0;whiteSpace=wrap;html=1;fillColor=#dae8fc;strokeColor=#6c8ebf;" vertex="1" parent="1">
          <mxGeometry x="309" y="360" width="40" height="20" as="geometry" />
        </mxCell>
        <mxCell id="zJMHawpHRN4qf1-_98gR-39" style="edgeStyle=none;rounded=0;orthogonalLoop=1;jettySize=auto;html=1;exitX=0.5;exitY=0;exitDx=0;exitDy=0;" edge="1" parent="1" source="zJMHawpHRN4qf1-_98gR-42">
          <mxGeometry relative="1" as="geometry">
            <mxPoint x="379.1428571428571" y="319.9999999999999" as="targetPoint" />
          </mxGeometry>
        </mxCell>
        <mxCell id="zJMHawpHRN4qf1-_98gR-40" style="edgeStyle=none;rounded=0;orthogonalLoop=1;jettySize=auto;html=1;exitX=0.5;exitY=0;exitDx=0;exitDy=0;entryX=0.5;entryY=1;entryDx=0;entryDy=0;startArrow=none;startFill=0;" edge="1" parent="1" source="zJMHawpHRN4qf1-_98gR-42" target="zJMHawpHRN4qf1-_98gR-32">
          <mxGeometry relative="1" as="geometry" />
        </mxCell>
        <mxCell id="zJMHawpHRN4qf1-_98gR-41" style="edgeStyle=none;rounded=0;orthogonalLoop=1;jettySize=auto;html=1;exitX=0.5;exitY=0;exitDx=0;exitDy=0;startArrow=none;startFill=0;" edge="1" parent="1" source="zJMHawpHRN4qf1-_98gR-42">
          <mxGeometry relative="1" as="geometry">
            <mxPoint x="499" y="319.9999999999999" as="targetPoint" />
          </mxGeometry>
        </mxCell>
        <mxCell id="zJMHawpHRN4qf1-_98gR-42" value="" style="rounded=0;whiteSpace=wrap;html=1;fillColor=#dae8fc;strokeColor=#6c8ebf;" vertex="1" parent="1">
          <mxGeometry x="359" y="360" width="40" height="20" as="geometry" />
        </mxCell>
        <mxCell id="zJMHawpHRN4qf1-_98gR-43" value="&lt;b&gt;. . .&lt;/b&gt;" style="text;html=1;align=center;verticalAlign=middle;resizable=0;points=[];autosize=1;strokeColor=none;" vertex="1" parent="1">
          <mxGeometry x="424" y="301" width="30" height="20" as="geometry" />
        </mxCell>
        <mxCell id="zJMHawpHRN4qf1-_98gR-44" value="&lt;b&gt;. . .&lt;/b&gt;" style="text;html=1;align=center;verticalAlign=middle;resizable=0;points=[];autosize=1;strokeColor=none;" vertex="1" parent="1">
          <mxGeometry x="424" y="360" width="30" height="20" as="geometry" />
        </mxCell>
        <mxCell id="zJMHawpHRN4qf1-_98gR-45" style="edgeStyle=none;rounded=0;orthogonalLoop=1;jettySize=auto;html=1;exitX=0.5;exitY=0;exitDx=0;exitDy=0;entryX=0.5;entryY=1;entryDx=0;entryDy=0;startArrow=none;startFill=0;" edge="1" parent="1" source="zJMHawpHRN4qf1-_98gR-48" target="zJMHawpHRN4qf1-_98gR-33">
          <mxGeometry relative="1" as="geometry" />
        </mxCell>
        <mxCell id="zJMHawpHRN4qf1-_98gR-46" style="edgeStyle=none;rounded=0;orthogonalLoop=1;jettySize=auto;html=1;exitX=0.5;exitY=0;exitDx=0;exitDy=0;entryX=0.5;entryY=1;entryDx=0;entryDy=0;startArrow=none;startFill=0;" edge="1" parent="1" source="zJMHawpHRN4qf1-_98gR-48" target="zJMHawpHRN4qf1-_98gR-34">
          <mxGeometry relative="1" as="geometry" />
        </mxCell>
        <mxCell id="zJMHawpHRN4qf1-_98gR-47" style="edgeStyle=none;rounded=0;orthogonalLoop=1;jettySize=auto;html=1;exitX=0.5;exitY=0;exitDx=0;exitDy=0;entryX=0.5;entryY=1;entryDx=0;entryDy=0;startArrow=none;startFill=0;" edge="1" parent="1" source="zJMHawpHRN4qf1-_98gR-48" target="zJMHawpHRN4qf1-_98gR-32">
          <mxGeometry relative="1" as="geometry" />
        </mxCell>
        <mxCell id="zJMHawpHRN4qf1-_98gR-48" value="" style="rounded=0;whiteSpace=wrap;html=1;fillColor=#dae8fc;strokeColor=#6c8ebf;" vertex="1" parent="1">
          <mxGeometry x="479" y="360" width="40" height="20" as="geometry" />
        </mxCell>
        <mxCell id="zJMHawpHRN4qf1-_98gR-49" style="edgeStyle=none;rounded=0;orthogonalLoop=1;jettySize=auto;html=1;exitX=0.5;exitY=0;exitDx=0;exitDy=0;entryX=0.5;entryY=1;entryDx=0;entryDy=0;startArrow=none;startFill=0;" edge="1" parent="1" source="zJMHawpHRN4qf1-_98gR-50" target="zJMHawpHRN4qf1-_98gR-38">
          <mxGeometry relative="1" as="geometry" />
        </mxCell>
        <mxCell id="zJMHawpHRN4qf1-_98gR-50" value="[SEP]" style="rounded=0;whiteSpace=wrap;html=1;fillColor=#ffe6cc;strokeColor=#d79b00;" vertex="1" parent="1">
          <mxGeometry x="309" y="401" width="40" height="20" as="geometry" />
        </mxCell>
        <mxCell id="zJMHawpHRN4qf1-_98gR-51" value="" style="edgeStyle=none;rounded=0;orthogonalLoop=1;jettySize=auto;html=1;startArrow=none;startFill=0;entryX=0.5;entryY=1;entryDx=0;entryDy=0;" edge="1" parent="1" source="zJMHawpHRN4qf1-_98gR-52" target="zJMHawpHRN4qf1-_98gR-42">
          <mxGeometry relative="1" as="geometry" />
        </mxCell>
        <mxCell id="zJMHawpHRN4qf1-_98gR-52" value="&lt;span style=&quot;font-size: 15px&quot;&gt;&lt;i&gt;V&lt;sup&gt;(1)&lt;/sup&gt;&lt;/i&gt;&lt;/span&gt;" style="rounded=0;whiteSpace=wrap;html=1;fillColor=#ffe6cc;strokeColor=#d79b00;" vertex="1" parent="1">
          <mxGeometry x="359" y="401" width="40" height="20" as="geometry" />
        </mxCell>
        <mxCell id="zJMHawpHRN4qf1-_98gR-53" style="edgeStyle=none;rounded=0;orthogonalLoop=1;jettySize=auto;html=1;entryX=0.5;entryY=1;entryDx=0;entryDy=0;startArrow=none;startFill=0;" edge="1" parent="1" source="zJMHawpHRN4qf1-_98gR-54" target="zJMHawpHRN4qf1-_98gR-48">
          <mxGeometry relative="1" as="geometry" />
        </mxCell>
        <mxCell id="zJMHawpHRN4qf1-_98gR-54" value="&lt;span style=&quot;font-size: 15px&quot;&gt;&lt;i&gt;V&lt;sup&gt;(m)&lt;/sup&gt;&lt;/i&gt;&lt;/span&gt;" style="rounded=0;whiteSpace=wrap;html=1;fillColor=#ffe6cc;strokeColor=#d79b00;" vertex="1" parent="1">
          <mxGeometry x="479" y="401" width="40" height="20" as="geometry" />
        </mxCell>
        <mxCell id="zJMHawpHRN4qf1-_98gR-55" value="" style="endArrow=none;html=1;" edge="1" parent="1">
          <mxGeometry width="50" height="50" relative="1" as="geometry">
            <mxPoint x="359" y="437" as="sourcePoint" />
            <mxPoint x="359" y="427" as="targetPoint" />
          </mxGeometry>
        </mxCell>
        <mxCell id="zJMHawpHRN4qf1-_98gR-56" value="" style="endArrow=none;html=1;" edge="1" parent="1">
          <mxGeometry width="50" height="50" relative="1" as="geometry">
            <mxPoint x="520" y="437" as="sourcePoint" />
            <mxPoint x="520" y="427" as="targetPoint" />
          </mxGeometry>
        </mxCell>
        <mxCell id="zJMHawpHRN4qf1-_98gR-57" value="" style="endArrow=none;html=1;" edge="1" parent="1">
          <mxGeometry width="50" height="50" relative="1" as="geometry">
            <mxPoint x="359" y="432" as="sourcePoint" />
            <mxPoint x="519" y="432" as="targetPoint" />
          </mxGeometry>
        </mxCell>
        <mxCell id="zJMHawpHRN4qf1-_98gR-58" value="video (title+ocr)" style="text;html=1;align=center;verticalAlign=middle;resizable=0;points=[];autosize=1;strokeColor=none;" vertex="1" parent="1">
          <mxGeometry x="393" y="434" width="100" height="20" as="geometry" />
        </mxCell>
        <mxCell id="zJMHawpHRN4qf1-_98gR-59" value="&lt;b&gt;&lt;font style=&quot;font-size: 14px&quot;&gt;&lt;i&gt;sim(q,v)&lt;/i&gt;&lt;/font&gt;&lt;/b&gt;" style="text;html=1;align=center;verticalAlign=middle;resizable=0;points=[];autosize=1;strokeColor=none;" vertex="1" parent="1">
          <mxGeometry x="130" y="256" width="70" height="20" as="geometry" />
        </mxCell>
      </root>
    </mxGraphModel>
  </diagram>
</mxfile>
